HIERARCHY
ROOT hip
{
  OFFSET 0 0 0
  CHANNELS 6 Xposition Yposition Zposition Zrotation Yrotation Xrotation
  JOINT abdomen
  {
    OFFSET 0 20.6881 -0.73152
    CHANNELS 3 Zrotation Xrotation Yrotation
    JOINT chest
    {
      OFFSET 0 11.7043 -0.48768
      CHANNELS 3 Zrotation Xrotation Yrotation
      JOINT neck
      {
        OFFSET 0 22.1894 -2.19456
        CHANNELS 3 Zrotation Xrotation Yrotation
        JOINT head
        {
          OFFSET -0.24384 7.07133 1.2192
          CHANNELS 3 Zrotation Xrotation Yrotation
          JOINT leftEye
          {
            OFFSET 4.14528 8.04674 8.04672
            CHANNELS 3 Zrotation Xrotation Yrotation
            End Site
            {
              OFFSET 1 0 0
            }
          }
          JOINT rightEye
          {
            OFFSET -3.6576 8.04674 8.04672
            CHANNELS 3 Zrotation Xrotation Yrotation
            End Site
            {
              OFFSET 1 0 0
            }
          }
        }
      }
      JOINT rCollar
      {
        OFFSET -2.68224 19.2634 -4.8768
        CHANNELS 3 Zrotation Xrotation Yrotation
        JOINT rShldr
        {
          OFFSET -8.77824 -1.95073 1.46304
          CHANNELS 3 Zrotation Xrotation Yrotation
          JOINT rForeArm
          {
            OFFSET -28.1742 -1.7115 0.48768
            CHANNELS 3 Zrotation Xrotation Yrotation
            JOINT rHand
            {
              OFFSET -22.5879 0.773209 7.07136
              CHANNELS 3 Zrotation Xrotation Yrotation
              JOINT rThumb1
              {
                OFFSET -1.2192 -0.487915 3.41376
                CHANNELS 3 Zrotation Xrotation Yrotation
                JOINT rThumb2
                {
                  OFFSET -3.37035 -0.52449 3.41376
                  CHANNELS 3 Zrotation Xrotation Yrotation
                  End Site
                  {
                    OFFSET -1.78271 -1.18214 1.43049
                  }
                }
              }
              JOINT rIndex1
              {
                OFFSET -7.75947 0.938293 5.60832
                CHANNELS 3 Zrotation Xrotation Yrotation
                JOINT rIndex2
                {
                  OFFSET -2.54057 -0.884171 1.56538
                  CHANNELS 3 Zrotation Xrotation Yrotation
                  End Site
                  {
                    OFFSET -1.62519 -0.234802 1.16502
                  }
                }
              }
              JOINT rMid1
              {
                OFFSET -8.24714 1.18213 3.41376
                CHANNELS 3 Zrotation Xrotation Yrotation
                JOINT rMid2
                {
                  OFFSET -3.10165 -0.590103 1.0647
                  CHANNELS 3 Zrotation Xrotation Yrotation
                  End Site
                  {
                    OFFSET -2.48547 -0.328903 0.83742
                  }
                }
              }
              JOINT rRing1
              {
                OFFSET -8.82822 0.546677 1.51678
                CHANNELS 3 Zrotation Xrotation Yrotation
                JOINT rRing2
                {
                  OFFSET -2.60934 -0.819778 -0.0198488
                  CHANNELS 3 Zrotation Xrotation Yrotation
                  End Site
                  {
                    OFFSET -2.33842 -0.294052 0.168128
                  }
                }
              }
              JOINT rPinky1
              {
                OFFSET -8.27202 -0.0477905 -0.4584
                CHANNELS 3 Zrotation Xrotation Yrotation
                JOINT rPinky2
                {
                  OFFSET -1.82734 -0.647385 -0.700984
                  CHANNELS 3 Zrotation Xrotation Yrotation
                  End Site
                  {
                    OFFSET -1.69225 -0.51767 -0.607171
                  }
                }
              }
            }
          }
        }
      }
      JOINT lCollar
      {
        OFFSET 2.68224 19.2634 -4.8768
        CHANNELS 3 Zrotation Xrotation Yrotation
        JOINT lShldr
        {
          OFFSET 8.77824 -1.95073 1.46304
          CHANNELS 3 Zrotation Xrotation Yrotation
          JOINT lForeArm
          {
            OFFSET 28.1742 -1.7115 0.48768
            CHANNELS 3 Zrotation Xrotation Yrotation
            JOINT lHand
            {
              OFFSET 22.5879 0.773209 7.07136
              CHANNELS 3 Zrotation Xrotation Yrotation
              JOINT lThumb1
              {
                OFFSET 1.2192 -0.487915 3.41376
                CHANNELS 3 Zrotation Xrotation Yrotation
                JOINT lThumb2
                {
                  OFFSET 3.37035 -0.52449 3.41376
                  CHANNELS 3 Zrotation Xrotation Yrotation
                  End Site
                  {
                    OFFSET 1.78271 -1.18214 1.43049
                  }
                }
              }
              JOINT lIndex1
              {
                OFFSET 7.75947 0.938293 5.60832
                CHANNELS 3 Zrotation Xrotation Yrotation
                JOINT lIndex2
                {
                  OFFSET 2.54057 -0.884171 1.56538
                  CHANNELS 3 Zrotation Xrotation Yrotation
                  End Site
                  {
                    OFFSET 1.62519 -0.234802 1.16502
                  }
                }
              }
              JOINT lMid1
              {
                OFFSET 8.24714 1.18213 3.41376
                CHANNELS 3 Zrotation Xrotation Yrotation
                JOINT lMid2
                {
                  OFFSET 3.10165 -0.590103 1.0647
                  CHANNELS 3 Zrotation Xrotation Yrotation
                  End Site
                  {
                    OFFSET 2.48547 -0.328903 0.83742
                  }
                }
              }
              JOINT lRing1
              {
                OFFSET 8.82822 0.546677 1.51678
                CHANNELS 3 Zrotation Xrotation Yrotation
                JOINT lRing2
                {
                  OFFSET 2.60934 -0.819778 -0.0198488
                  CHANNELS 3 Zrotation Xrotation Yrotation
                  End Site
                  {
                    OFFSET 2.33842 -0.294052 0.168128
                  }
                }
              }
              JOINT lPinky1
              {
                OFFSET 8.27202 -0.0477905 -0.4584
                CHANNELS 3 Zrotation Xrotation Yrotation
                JOINT lPinky2
                {
                  OFFSET 1.82734 -0.647385 -0.700984
                  CHANNELS 3 Zrotation Xrotation Yrotation
                  End Site
                  {
                    OFFSET 1.69225 -0.51767 -0.607171
                  }
                }
              }
            }
          }
        }
      }
    }
  }
  JOINT rButtock
  {
    OFFSET -8.77824 4.35084 1.2192
    CHANNELS 3 Zrotation Xrotation Yrotation
    JOINT rThigh
    {
      OFFSET 0 -1.70687 -2.19456
      CHANNELS 3 Zrotation Xrotation Yrotation
      JOINT rShin
      {
        OFFSET 0 -36.8199 0.73152
        CHANNELS 3 Zrotation Xrotation Yrotation
        JOINT rFoot
        {
          OFFSET 0.73152 -45.1104 -5.12064
          CHANNELS 3 Zrotation Xrotation Yrotation
          End Site
          {
            OFFSET -1.1221 -3.69964 12.103
          }
        }
      }
    }
  }
  JOINT lButtock
  {
    OFFSET 8.77824 4.35084 1.2192
    CHANNELS 3 Zrotation Xrotation Yrotation
    JOINT lThigh
    {
      OFFSET 0 -1.70687 -2.19456
      CHANNELS 3 Zrotation Xrotation Yrotation
      JOINT lShin
      {
        OFFSET 0 -36.8199 0.73152
        CHANNELS 3 Zrotation Xrotation Yrotation
        JOINT lFoot
        {
          OFFSET -0.73152 -45.1104 -5.12064
          CHANNELS 3 Zrotation Xrotation Yrotation
          End Site
          {
            OFFSET 1.1221 -3.69964 12.103
          }
        }
      }
    }
  }
}
MOTION
Frames:	4
Frame Time:	0.00833333
34.8708 100.23 45.5327 -8.2421 -2.3895 51.1615 1.26391 27.0821 6.28469 -2.72747 6.17001 1.66766 -4.26823 3.97082 -0.870762 7.19513 -29.2869 0.96274 -0.0 0.0 0.0 -0.0 0.0 0.0 4.81043e-14 4.68297e-15 2.2276e-13 56.7739 -38.756 -36.713 -3.14104 -0.902106 5.45203 -1.11881 28.4657 4.37312 8.5125e-10 1.37686e-09 1.65032e-09 1.50003e-09 2.24549e-09 2.83058e-09 8.5125e-10 1.37685e-09 1.65031e-09 7.73091 5.47488 0.417314 8.51244e-10 1.37684e-09 1.65032e-09 2.90554 0.965183 0.102902 8.51252e-10 1.37686e-09 1.65032e-09 10.2786 0.731801 0.0259123 8.51241e-10 1.37686e-09 1.65033e-09 2.22167 -0.733487 -0.20892 4.80023e-14 4.684e-15 2.22607e-13 -62.0067 -32.1787 22.7968 0.166935 -0.0287573 -0.298563 3.77977 49.3086 -8.98628 1.62567e-10 -6.08584e-09 9.90663e-10 2.47958e-10 -1.034e-08 1.63093e-09 1.62564e-10 -6.08585e-09 9.9067e-10 -7.73091 5.47488 -0.417314 1.62571e-10 -6.08583e-09 9.90665e-10 -2.90554 0.965183 -0.102902 1.62563e-10 -6.08584e-09 9.90666e-10 -10.2786 0.731801 -0.0259123 1.62571e-10 -6.08583e-09 9.90652e-10 -2.22167 -0.733487 0.20892 -2.03217e-16 0.0 -3.88251e-19 11.2813 -50.0711 8.46568 -0.0179501 6.33726 0.119668 4.58083 20.4163 -13.9125 2.03217e-16 0.0 3.88251e-19 22.3211 -44.8423 -7.05163 0.00324105 -3.59877 -0.00941157 5.65587 -11.7053 18.6512
36.2244 104.828 45.289 -5.0835 -2.7207 56.8872 1.43118 27.8782 5.57229 -2.58952 4.46452 1.43335 -3.9942 4.51282 -1.08884 5.55888 -31.5629 0.0757808 -0.0 0.0 0.0 -0.0 0.0 0.0 8.39959e-14 3.50159e-13 1.06608e-13 60.3915 -38.1326 -33.803 -3.56848 -1.04381 6.21249 -1.05662 27.5123 4.2069 1.66755e-10 1.45106e-08 4.87081e-09 3.75554e-10 2.48351e-08 8.40362e-09 1.66755e-10 1.45106e-08 4.8708e-09 7.73091 5.47488 0.417314 1.66749e-10 1.45106e-08 4.87082e-09 2.90554 0.965183 0.102902 1.6676e-10 1.45106e-08 4.87081e-09 10.2786 0.731801 0.0259123 1.66749e-10 1.45106e-08 4.87082e-09 2.22167 -0.733487 -0.20892 8.3874e-14 3.50159e-13 1.06375e-13 -59.2111 -44.4482 24.2453 0.984721 -0.259731 -1.6913 8.65685 62.6802 -15.0397 3.16745e-09 8.40642e-09 -1.15132e-11 5.30353e-09 1.5024e-08 -2.88682e-10 3.16745e-09 8.40641e-09 -1.15062e-11 -7.73091 5.47488 -0.417314 3.16745e-09 8.40643e-09 -1.15138e-11 -2.90554 0.965183 -0.102902 3.16745e-09 8.40642e-09 -1.15108e-11 -10.2786 0.731801 -0.0259123 3.16745e-09 8.40643e-09 -1.15234e-11 -2.22167 -0.733487 0.20892 -2.03217e-16 0.0 -3.88251e-19 8.65406 -54.4179 5.60469 -0.0219543 7.58843 0.140021 4.75426 18.5386 -16.0323 2.03217e-16 0.0 3.88251e-19 22.9897 -48.8202 -3.63231 0.0148294 -3.26918 0.0126656 5.52302 -8.9834 21.5398
36.4258 109.374 45.0911 -5.1653 -1.2672 61.7401 2.15218 29.0083 4.57534 -2.47076 2.39981 1.16256 -3.55797 5.32964 -1.33089 3.71062 -34.4794 -0.988201 -0.0 0.0 0.0 -0.0 0.0 0.0 1.07413e-13 6.72824e-13 -2.60489e-14 65.1575 -36.5873 -29.1728 -4.25076 -1.29933 7.40842 -0.944622 26.0808 3.95427 -4.35148e-10 2.65383e-08 7.60535e-09 -6.15864e-10 4.55116e-08 1.31357e-08 -4.35148e-10 2.65383e-08 7.60534e-09 7.73091 5.47488 0.417314 -4.35153e-10 2.65383e-08 7.60535e-09 2.90554 0.965183 0.102902 -4.3514e-10 2.65383e-08 7.60535e-09 10.2786 0.731801 0.0259123 -4.35151e-10 2.65383e-08 7.60535e-09 2.22167 -0.733487 -0.20892 1.07277e-13 6.72824e-13 -2.63568e-14 -55.8127 -57.6991 26.6197 1.98786 -0.554927 -3.41977 26.6975 76.2237 -34.1126 5.98945e-09 2.21385e-08 -9.16684e-10 1.00555e-08 3.9033e-08 -2.02288e-09 5.98945e-09 2.21385e-08 -9.16677e-10 -7.73091 5.47488 -0.417314 5.98945e-09 2.21385e-08 -9.16687e-10 -2.90554 0.965183 -0.102902 5.98945e-09 2.21385e-08 -9.16682e-10 -10.2786 0.731801 -0.0259123 5.98946e-09 2.21385e-08 -9.16693e-10 -2.22167 -0.733487 0.20892 -2.03217e-16 0.0 -3.88251e-19 4.85966 -58.9419 1.21236 -0.0143102 11.2712 0.201613 4.20873 15.4602 -17.4466 2.03217e-16 0.0 3.88251e-19 24.3391 -53.5148 1.03257 0.017129 0.0970793 -0.000772874 4.73804 -6.13868 23.0334
36.1179 113.683 44.7959 -6.1463 0.6736 66.4589 2.8216 30.4743 3.91432 -2.33245 0.666337 0.99805 -3.05536 6.2695 -1.55671 2.00113 -37.7335 -2.08903 -0.0 0.0 0.0 -0.0 0.0 0.0 1.15418e-13 8.26944e-13 -1.09282e-13 70.2356 -33.7043 -22.9664 -5.05976 -1.64095 8.81114 -0.744856 23.7369 3.54319 -7.72833e-10 3.18132e-08 8.7205e-09 -1.17812e-09 5.45826e-08 1.50673e-08 -7.72833e-10 3.18132e-08 8.72049e-09 7.73091 5.47488 0.417314 -7.72838e-10 3.18132e-08 8.7205e-09 2.90554 0.965183 0.102902 -7.72824e-10 3.18132e-08 8.7205e-09 10.2786 0.731801 0.0259123 -7.72836e-10 3.18132e-08 8.7205e-09 2.22167 -0.733487 -0.20892 1.15279e-13 8.26944e-13 -1.0963e-13 -52.8436 -71.1646 28.72 2.7014 -0.768917 -4.66737 101.33 81.5187 -109.528 7.31653e-09 2.93756e-08 -1.45831e-09 1.22936e-08 5.16316e-08 -3.0282e-09 7.31653e-09 2.93756e-08 -1.4583e-09 -7.73091 5.47488 -0.417314 7.31654e-09 2.93756e-08 -1.45831e-09 -2.90554 0.965183 -0.102902 7.31654e-09 2.93756e-08 -1.45831e-09 -10.2786 0.731801 -0.0259123 7.31654e-09 2.93756e-08 -1.45832e-09 -2.22167 -0.733487 0.20892 -2.03217e-16 0.0 -3.88251e-19 0.628961 -62.7455 -3.61983 -0.00403644 16.2815 0.292327 3.50432 13.2437 -17.5423 2.03217e-16 0.0 3.88251e-19 26.3139 -57.9647 5.83956 0.0102219 5.47313 -0.0530485 3.69324 -3.72619 22.8751
